<?xml version="1.0" encoding="utf-8"?>
<!-- Generator: Adobe Illustrator 24.0.1, SVG Export Plug-In . SVG Version: 6.00 Build 0)  -->
<svg version="1.1" id="layer" xmlns="http://www.w3.org/2000/svg" x="0px" y="0px"
     viewBox="0 0 600 175.7" style="enable-background:new 0 0 600 175.7;" xml:space="preserve">
<style type="text/css">
	.st0{fill:#0B63CE;}
	.st1{fill:#FFFFFF;}
	.st2{fill:#101820;}
</style>
<path class="st0" d="M0,22c0-5.1,4.1-9.1,9.1-9.1h105.2c5.1,0,9.1,4.1,9.1,9.1v105.2c0,5.1-4.1,9.1-9.1,9.1H9.1
	c-5.1,0-9.1-4.1-9.1-9.1C0,127.2,0,22,0,22z"/>
<path class="st1" d="M18.3,33.5c0-1.3,1-2.3,2.3-2.3h13.7c1.3,0,2.3,1,2.3,2.3v13.7c0,1.3-1,2.3-2.3,2.3H20.6c-1.3,0-2.3-1-2.3-2.3
	V33.5z"/>
<path class="st1" d="M43.4,31.2c-1.3,0-2.3,1-2.3,2.3v13.7c0,1.3,1,2.3,2.3,2.3h13.7c1.3,0,2.3-1,2.3-2.3V33.5c0-1.3-1-2.3-2.3-2.3
	H43.4z"/>
<path class="st1" d="M64,33.5c0-1.3,1-2.3,2.3-2.3H80c1.3,0,2.3,1,2.3,2.3v13.7c0,1.3-1,2.3-2.3,2.3H66.3c-1.3,0-2.3-1-2.3-2.3V33.5
	z"/>
<path class="st1" d="M20.6,54.1c-1.3,0-2.3,1-2.3,2.3v13.7c0,1.3,1,2.3,2.3,2.3h13.7c1.3,0,2.3-1,2.3-2.3V56.4c0-1.3-1-2.3-2.3-2.3
	H20.6z"/>
<path class="st1" d="M41.1,56.3c0-1.3,1-2.3,2.3-2.3h13.7c1.3,0,2.3,1,2.3,2.3v13.8c0,1.3-1,2.3-2.3,2.3H43.4c-1.3,0-2.3-1-2.3-2.3
	V56.3z"/>
<path class="st1" d="M89.2,54.1c-1.3,0-2.3,1-2.3,2.3v13.7c0,1.3,1,2.3,2.3,2.3h13.7c1.3,0,2.3-1,2.3-2.3V56.4c0-1.3-1-2.3-2.3-2.3
	H89.2z"/>
<path class="st1" d="M18.3,79.2c0-1.3,1-2.3,2.3-2.3h13.7c1.3,0,2.3,1,2.3,2.3v13.7c0,1.3-1,2.3-2.3,2.3H20.6c-1.3,0-2.3-1-2.3-2.3
	V79.2z"/>
<path class="st1" d="M66.3,76.9c-1.3,0-2.3,1-2.3,2.3v13.7c0,1.3,1,2.3,2.3,2.3H80c1.3,0,2.3-1,2.3-2.3V79.2c0-1.3-1-2.3-2.3-2.3
	H66.3z"/>
<path class="st1" d="M86.9,79.2c0-1.3,1-2.3,2.3-2.3h13.7c1.3,0,2.3,1,2.3,2.3v13.7c0,1.3-1,2.3-2.3,2.3H89.2c-1.3,0-2.3-1-2.3-2.3
	V79.2z"/>
<path class="st1" d="M43.4,99.8c-1.3,0-2.3,1-2.3,2.3v13.7c0,1.3,1,2.3,2.3,2.3h13.7c1.3,0,2.3-1,2.3-2.3v-13.7c0-1.3-1-2.3-2.3-2.3
	H43.4z"/>
<path class="st1" d="M64,102.1c0-1.3,1-2.3,2.3-2.3H80c1.3,0,2.3,1,2.3,2.3v13.7c0,1.3-1,2.3-2.3,2.3H66.3c-1.3,0-2.3-1-2.3-2.3
	V102.1z"/>
<path class="st1" d="M89.2,99.8c-1.3,0-2.3,1-2.3,2.3v13.7c0,1.3,1,2.3,2.3,2.3h13.7c1.3,0,2.3-1,2.3-2.3v-13.7c0-1.3-1-2.3-2.3-2.3
	H89.2z"/>
<path class="st2" d="M225,126.6h-54.2V14.5c0-0.7-0.5-1.1-1.1-1.1h-8.5c-0.7,0-1.1,0.5-1.1,1.1v120.3c0,0.7,0.5,1.1,1.1,1.1H225
	c0.7,0,1.1-0.5,1.1-1.1v-7.3C226.2,127,225.7,126.6,225,126.6z M305.3,46h-19.2V28.2c0-12.6,4.1-18.8,12.6-18.8
	c3.4,0,6.9,0.9,10.1,2.3c0.2,0.2,0.7,0.2,0.9,0l0.7-0.7l2.3-6.6c0.2-0.5,0-1.1-0.7-1.4c-4.3-1.8-9.1-3-13.3-3
	c-14.6,0-22.9,9.8-22.9,27.4v18.5l-11,0.7c-0.7,0-1.1,0.5-1.1,1.1v6.2c0,0.7,0.5,1.1,1.1,1.1h11v79.6c0,0.7,0.5,1.1,1.1,1.1h8
	c0.7,0,1.1-0.5,1.1-1.1V55h19.2c0.7,0,1.1-0.5,1.1-1.1v-7.1C306.4,46.5,306,46,305.3,46L305.3,46z M346.9,43.8
	c-19,0-39.3,16.7-39.3,47.3c0,27.7,17.2,47.1,41.6,47.1c13,0,21-4.3,28.4-8.7c0.5-0.2,0.7-0.9,0.5-1.6l-3.4-6.2
	c-0.2-0.2-0.5-0.5-0.7-0.5s-0.7,0-0.9,0.2c-7.3,5.3-14.6,7.5-22.9,7.5c-18.5,0-31.1-14.4-31.8-35.7h62c0.5,0,0.9-0.5,1.1-0.9
	c0.5-2.3,0.5-4.8,0.5-6.9C381.5,59.3,368.7,43.8,346.9,43.8z M318.1,84.2c2.1-18.5,13.7-31.3,28.8-31.3c15.8,0,24.5,11.2,24.7,31.3
	H318.1L318.1,84.2z M440,45.8c-2.7-1.4-5.5-1.8-9.1-1.8c-9.1,0-17.8,5.7-24.5,16.5l-0.7-13.3c0-0.7-0.5-1.1-1.1-1.1h-6.9
	c-0.7,0-1.1,0.5-1.1,1.1V135c0,0.7,0.5,1.1,1.1,1.1h8c0.7,0,1.1-0.5,1.1-1.1V75.5c5.5-13.7,14-21.7,22.9-21.7c3.2,0,4.6,0.5,7.5,1.4
	h0.9c0.2-0.2,0.5-0.5,0.5-0.7l1.8-7.3C440.7,46.5,440.5,46,440,45.8z M512.3,46h-7.1c-0.7,0-1.1,0.5-1.1,1.1l-0.5,6.6
	c-7.5-5.9-14.9-9.8-25.4-9.8c-23.3,0-40,19.9-40,47.3c0,29.5,14,47.1,37.5,47.1c9.6,0,19.2-4.3,28.1-12.6l0.7,9.4
	c0,0.7,0.5,1.1,1.1,1.1h6.9c0.7,0,1.1-0.5,1.1-1.1V47C513.4,46.5,513,46,512.3,46L512.3,46z M503.1,63.9v51
	c-9.4,9.6-17.6,13.7-26.3,13.7c-17.4,0-27.9-14.2-27.9-37.7c0-21.3,13-38,29.7-38C487.4,53.1,494.7,56.3,503.1,63.9z M599.6,46.5
	c-0.2-0.2-0.5-0.5-0.9-0.5h-8.2c-0.5,0-0.9,0.2-1.1,0.7l-18.8,55.1c-0.9,3-2.1,6.2-3,9.4c-1.4,4.6-3,9.1-4.3,13.3
	c-1.8-4.6-3.7-9.6-5.5-14.4c-1.1-3-2.3-5.7-3.2-8.5l-21-55.1c-0.2-0.5-0.7-0.7-1.1-0.7h-8.7c-0.5,0-0.7,0.2-0.9,0.5
	c-0.2,0.2-0.2,0.7,0,1.1l35.9,89l-2.3,7.3c-3.4,10.3-9.8,22.4-21.5,22.4c-2.3,0-5-0.7-6.9-1.4h-0.9l-0.7,0.7l-1.8,7.1
	c-0.2,0.5,0.2,1.1,0.7,1.4c2.5,1.1,6.2,1.8,9.4,1.8c13.5,0,24-10.3,30.6-29.7l34.5-98.8C600.1,47.2,599.9,46.7,599.6,46.5
	L599.6,46.5z M247.9,26.1c1.4,0,2.5-1.1,2.5-2.5v-8.2c0-1.4-1.1-2.5-2.5-2.5h-8.2c-1.4,0-2.5,1.1-2.5,2.5v8.2c0,1.4,1.1,2.5,2.5,2.5
	H247.9z M239.7,46h8c0.7,0,1.1,0.5,1.1,1.1v87.8c0,0.7-0.5,1.1-1.1,1.1h-8c-0.7,0-1.1-0.5-1.1-1.1V47.1C238.5,46.5,239,46,239.7,46z
	"/>
</svg>
