<svg xmlns="http://www.w3.org/2000/svg" viewBox="0 0 352.68 184.08"><defs><style>.cls-1{fill:#404040;}.cls-2{fill:#d02027;}</style></defs><title>Logo Fuel_SHORT_BG Branco</title><g id="Layer_1" data-name="Layer 1"><path class="cls-1" d="M83.17,24.45A24.44,24.44,0,0,1,91,27L86.44,49.13A36.61,36.61,0,0,0,77.23,48q-8.37,0-8.37,8.53v8.2H86.6V91.81H68.86v60.58h-32V91.81H25.19V64.7H36.9V55q0-13.72,9-22.59t26.36-8.87A60.14,60.14,0,0,1,83.17,24.45Z"/><path class="cls-1" d="M179,64.7v87.69h-26.1V141.51A31.35,31.35,0,0,1,142.07,151q-6.44,3.43-16.48,3.43-15.9,0-24.35-8.37T92.79,123.6V64.7h31.46v51.37q0,5.52,2.43,7.7c1.62,1.45,5,2.18,8,2.18,7.63,0,12.64-2.88,12.63-10.88V64.7Z"/><path class="cls-1" d="M257.62,123.93,268,144.68q-14.23,10.71-37.15,10.71-21.76,0-34.72-11.88t-13-34.64a51.65,51.65,0,0,1,5.61-24.18,42,42,0,0,1,15.65-16.9,43.55,43.55,0,0,1,23.09-6.11q13.55,0,22.84,5.52a34.73,34.73,0,0,1,13.81,14.73,45.32,45.32,0,0,1,4.52,20.25A63.62,63.62,0,0,1,267,117.24H214.78q3.51,14.06,19.58,14.06A39.24,39.24,0,0,0,257.62,123.93ZM219.3,87.62q-3.35,3-4.69,10.54h24.77q-.5-13.55-11.21-13.55A12.75,12.75,0,0,0,219.3,87.62Z"/><path class="cls-1" d="M307.65,155.39H275.86V46.73a5,5,0,0,1,2.51-4.35l25.26-14.1a2.68,2.68,0,0,1,4,2.32Z"/><path class="cls-2" d="M325.49,121,351,135.16a3.21,3.21,0,0,1,0,5.61L325.56,155a3.21,3.21,0,0,1-4.77-2.79l-.06-28.36A3.21,3.21,0,0,1,325.49,121Z"/></g><g id="Layer_2" data-name="Layer 2"><polygon class="cls-1" points="324.93 112.51 340.47 121.11 340.47 0 0 0 0 184.09 340.47 184.09 340.47 154.87 325.1 163.69 325.1 169.19 14.76 169.19 14.76 14.57 325.1 14.57 324.93 112.51"/></g></svg>